<svg xmlns:xlink="http://www.w3.org/1999/xlink" xmlns="http://www.w3.org/2000/svg" width="1200" height="789.653" viewBox="0 0 1200 789.653" style="transition-delay: 0ms;">
<path fill="#7027E1" d="M761.825,174.769C818.95,142.217,855.3130000000001,51.72200000000001,912.317,18.97200000000001C969.322,-13.779999999999994,1018.32,-0.8359999999999914,1074.825,32.769000000000005C1133.647,67.751,1178.431,118.019,1162.601,184.602C1146.7700000000002,251.184,1102.7450000000001,307.183,1057.18,358.247C1011.613,409.312,917.6640000000001,439.17900000000003,887.825,500.77C866.0060000000001,545.81,900.029,615.7719999999999,874.2700000000001,658.68C835.9050000000001,722.583,765.335,764.817,691.2540000000001,773.03C617.1730000000001,781.2429999999999,540.9050000000002,756.677,482.46800000000013,710.4119999999999C445.5340000000001,681.1689999999999,445.7330000000001,626.2829999999999,403.82600000000014,604.77C348.64300000000014,576.441,252.28600000000014,597.703,190.26100000000014,598.3969999999999C128.23600000000013,599.092,60.59500000000014,593.4019999999999,14.941000000000145,551.4089999999999C-39.885999999999854,500.97899999999987,71.59600000000015,447.8529999999999,101.82500000000014,379.76999999999987C140.70400000000015,292.2059999999999,103.31800000000014,158.16399999999987,203.28600000000014,141.59099999999987C288.4350000000002,127.47599999999987,375.48200000000014,162.78399999999988,457.5360000000002,173.73799999999986C469.66400000000016,175.35699999999986,481.8980000000002,176.70299999999986,494.1920000000002,177.72399999999985C582.042,185.025,684.243,218.977,761.825,174.769C761.825,174.769,761.825,174.769,761.825,174.769"></path>
<path fill="#7027E1" d="M761.825,174.769c57.125-32.552,93.488-123.047,150.492-155.797
	c57.005-32.752,106.003-19.808,162.508,13.797c58.822,34.982,103.606,85.25,87.776,151.833
	c-15.831,66.582-59.856,122.581-105.421,173.645c-45.567,51.065-139.516,80.932-169.355,142.523
	c-21.819,45.04,12.204,115.002-13.555,157.91c-38.365,63.903-108.935,106.137-183.016,114.35
	c-74.081,8.213-150.349-16.353-208.786-62.618c-36.934-29.243-36.735-84.129-78.642-105.642
	c-55.183-28.329-151.54-7.067-213.565-6.373c-62.025,0.695-129.666-4.995-175.32-46.988
	c-54.827-50.43,56.655-103.556,86.884-171.639c38.879-87.564,1.493-221.606,101.461-238.179
	c85.149-14.115,172.196,21.193,254.25,32.147c12.128,1.619,24.362,2.965,36.656,3.986
	C582.042,185.025,684.243,218.977,761.825,174.769z"></path>
<desc>Created with Snap</desc><defs></defs></svg>