<svg xmlns:xlink="http://www.w3.org/1999/xlink" xmlns="http://www.w3.org/2000/svg" width="856.078" height="682" viewBox="0 0 856.078 682" style="transition-delay: 0ms;">
<path fill="#0066FF" d="M159.236,101.98C290.04,30.357,457.091-10.676,606.09,2.42c140.342,12.335,273.224,115.747,246.549,268.154
		C827.654,413.327,690.976,521.654,575.342,596.25c-138.948,89.636-292.46,127.712-432.363,20.95
		C32.367,532.791-36.893,384.484,20.812,249.227C47.431,186.833,100.069,134.377,159.236,101.98z"></path>
<path fill="#0066FF" d="M85.107,33.083c130.805-71.623,268.804,45.621,423.386-17.376c130.466-53.168,296.692,33.563,270.017,185.97
		c-24.985,142.754-223.519,192.011-360.013,219.009C256.289,452.772,208.754,655.066,68.85,548.304
		c-110.611-84.409-68.039-196.35-10.334-331.607C85.135,154.303,25.941,65.481,85.107,33.083z"></path>
<desc>Created with Snap</desc><defs></defs></svg>