<svg xmlns:xlink="http://www.w3.org/1999/xlink" xmlns="http://www.w3.org/2000/svg" width="915.046" height="800" viewBox="0 0 915.046 800" style="transition-delay: 300ms;">
<path fill="#04389E" d="M591.9674124444444,3.722021333333333C615.9334124444445,7.891021333333333,639.9224124444445,15.653021333333333,663.7174124444444,27.934021333333334C770.5824124444445,83.08802133333334,783.4628408888888,203.50772355555554,812.9549102222222,302.312616C853.8497955555555,439.93564,956.6344124444445,594.3890213333333,864.6044124444444,698.7480213333333C804.5654124444444,766.8300213333333,706.9137315555555,802.3007022222222,604.9034124444444,799.2830213333333C568.0194124444444,799.6870213333333,535.7816088888887,768.0785164444445,494.0945848888888,753.3594764444445C308.222216,695.1256044444444,84.72473155555555,638.1350213333333,15.848412444444444,462.5537022222222C-43.35226844444444,311.63002133333333,81.52584355555555,230.1356088888889,192.98116266666668,163.841928C302.6868435555556,98.588928,444.48441244444444,-21.930978666666665,591.9674124444444,3.722021333333333C591.9674124444444,3.722021333333333,591.9674124444444,3.722021333333333,591.9674124444444,3.722021333333333"></path>
<path fill="#04389E" d="M587.607,2.572c23.966,4.169,47.955,11.931,71.75,24.212c106.865,55.154,69.137,195.105,79.763,298.527
	c15,146,213.154,267.928,121.124,372.287C800.205,765.68,702.554,801.15,600.543,798.133
	c-36.884,0.404-55.423-91.822-102.423-123.822C333.825,562.451,80.365,636.985,11.488,461.403
	C-47.712,310.48,135.664,281.604,247.12,215.311C356.825,150.058,440.124-23.081,587.607,2.572z"></path>
<desc>Created with Snap</desc><defs></defs></svg>