<svg xmlns:xlink="http://www.w3.org/1999/xlink" xmlns="http://www.w3.org/2000/svg" width="565.556" height="673.298" viewBox="0 0 565.556 673.298" style="transition-delay: 0ms;">
<path fill="#FED332" d="M0.0012295000000000001,294.5029975C0.0712295,277.1559975,2.6662295,259.3659975,8.460229499999999,241.1729975C34.4812295,159.4639975,122.7497435,142.03485,186.1147435,103.55385C273.7767435,50.317079500000006,376.9572295,-39.969772999999996,456.077,19.898227000000002C543.409,85.980227,515.8448655,162.09375749999998,524.436636,272.81475750000004C533.027636,383.53575750000005,506.5287705,575.393227,391.3137705,644.7662270000001C292.27677049999994,704.3952270000001,226.27906799999997,627.6479555000001,166.37406799999997,557.2047259999999C107.40929750000001,487.86772599999995,-0.434,401.2459975,0.0012295000000000001,294.5029975C0.0012295000000000001,294.5029975,0.0012295000000000001,294.5029975,0.0012295000000000001,294.5029975"></path>
<path fill="#FED332" d="M0.001,293.515c0.07-17.347,2.665-35.137,8.459-53.33c26.021-81.709,118.583-92.711,181.948-131.192
	C278.07,55.756,376.957-40.958,456.077,18.91c87.332,66.082,47.74,142.361,56.332,253.082
	c8.591,110.721-5.88,302.413-121.095,371.786c-99.037,59.629-159-23.343-218.905-93.786
	C113.444,480.655-0.434,400.258,0.001,293.515z"></path>
<desc>Created with Snap</desc><defs></defs></svg>