<svg xmlns:xlink="http://www.w3.org/1999/xlink" xmlns="http://www.w3.org/2000/svg" width="856.078" height="682" viewBox="0 0 856.078 682" style="transition-delay: 0ms;">
<path fill="#0066FF" d="M85.107,33.083C215.912,-38.540000000000006,353.91099999999994,78.70400000000001,508.49300000000005,15.706999999999997C638.9590000000001,-37.461,805.1850000000001,49.269999999999996,778.51,201.677C753.525,344.431,554.991,393.688,418.497,420.686C256.289,452.772,208.754,655.066,68.85,548.304C-41.76100000000002,463.895,0.8109999999999928,351.95399999999995,58.51599999999999,216.69699999999995C85.135,154.303,25.941000000000003,65.481,85.107,33.083C85.107,33.083,85.107,33.083,85.107,33.083"></path>
<path fill="#0066FF" d="M85.107,33.083c130.805-71.623,268.804,45.621,423.386-17.376c130.466-53.168,296.692,33.563,270.017,185.97
		c-24.985,142.754-223.519,192.011-360.013,219.009C256.289,452.772,208.754,655.066,68.85,548.304
		c-110.611-84.409-68.039-196.35-10.334-331.607C85.135,154.303,25.941,65.481,85.107,33.083z"></path>
<desc>Created with Snap</desc><defs></defs></svg>