<svg xmlns:xlink="http://www.w3.org/1999/xlink" xmlns="http://www.w3.org/2000/svg" width="581.678" height="690" viewBox="0 0 581.678 690" style="transition-delay: 0ms;">
<path fill="#FF0437" d="M0.002,303.314c0.072-17.865,2.744-36.185,8.712-54.922C35.511,164.244,111.57,124.073,176.826,84.443
	c90.279-54.825,205.999-117.735,292.865-63.93c56.67,35.101,94.351,101.441,104.703,175.667c4.825,26.654,7.26,55.035,7.284,84.227
	c0.12,145.959-60.028,312.183-178.683,383.627c-101.993,61.409-190.826,3.893-252.52-68.654
	C89.751,523.973-0.447,413.244,0.002,303.314z"></path>
<path fill="#FF0437" d="M0.002,297.472c0.072-17.865,2.744-36.185,8.712-54.922c26.798-84.148,130.869-79.762,196.125-119.392
	C295.118,68.333,382.825-39.134,469.691,14.67c56.67,35.101,94.351,101.441,104.703,175.667c4.825,26.654,7.26,55.035,7.284,84.227
	c0.12,145.959-72.184,277.149-190.839,348.593c-101.993,61.409-178.67,38.926-240.364-33.62
	C89.751,518.13-0.447,407.401,0.002,297.472z"></path>
<desc>Created with Snap</desc><defs></defs></svg>